<?xml version="1.0" standalone="no"?>
<!DOCTYPE svg PUBLIC "-//W3C//DTD SVG 20010904//EN"
 "http://www.w3.org/TR/2001/REC-SVG-20010904/DTD/svg10.dtd">
<svg version="1.0" xmlns="http://www.w3.org/2000/svg"
 width="300.000000pt" height="308.000000pt" viewBox="0 0 300.000000 308.000000"
 preserveAspectRatio="xMidYMid meet">
<metadata>
Created by potrace 1.10, written by Peter Selinger 2001-2011
</metadata>
<g transform="translate(0.000000,308.000000) scale(0.100000,-0.100000)"
fill="#000000" stroke="none">
<path d="M1597 2764 c-3 -3 -73 -7 -156 -8 -138 -2 -153 -4 -181 -24 -19 -14
-44 -22 -70 -22 -50 0 -182 -35 -218 -57 -15 -10 -37 -28 -49 -40 -12 -13 -30
-23 -39 -23 -9 0 -34 -15 -54 -32 -21 -18 -71 -58 -111 -88 -123 -94 -166
-138 -223 -234 -31 -50 -56 -97 -56 -104 0 -7 -13 -38 -29 -70 -29 -58 -46
-124 -63 -242 -20 -146 -21 -161 -4 -173 13 -10 14 -19 4 -55 -18 -72 3 -228
46 -342 46 -121 82 -196 115 -240 14 -19 40 -56 56 -81 50 -78 116 -152 168
-189 27 -19 55 -41 62 -48 8 -6 19 -12 25 -12 6 0 34 -18 62 -41 96 -76 245
-135 410 -163 69 -12 104 -13 170 -5 46 6 115 14 153 18 39 3 86 15 105 25 39
20 119 50 195 72 28 8 73 25 100 38 28 13 71 33 97 44 25 12 49 30 52 40 6 18
74 52 103 52 13 0 103 102 103 117 0 5 11 16 25 23 28 15 108 134 160 238 43
86 58 159 49 244 -4 47 -3 68 4 68 20 0 34 73 28 141 -3 35 -7 107 -10 159 -3
64 -11 115 -26 155 -12 33 -25 74 -30 90 -19 70 -61 179 -90 232 -37 71 -153
203 -221 254 -27 21 -78 63 -112 93 -34 31 -68 56 -76 56 -8 0 -35 13 -60 29
-85 52 -144 69 -372 106 -19 3 -38 2 -42 -1z m-177 -39 c0 -8 -6 -15 -14 -15
-8 0 -16 -5 -18 -11 -2 -6 -34 -13 -71 -16 -58 -5 -67 -3 -67 11 0 12 10 16
48 16 26 0 58 7 72 14 34 19 50 19 50 1z m130 5 c0 -7 6 -7 19 0 22 11 71 14
71 4 0 -4 -6 -12 -13 -18 -7 -6 -10 -10 -8 -9 2 2 10 -5 17 -15 12 -15 15 -15
23 -2 7 11 6 16 -4 20 -9 3 -11 10 -6 19 7 10 13 11 30 1 12 -6 27 -9 34 -7 7
2 17 -2 22 -10 13 -17 91 -31 81 -15 -4 7 -2 12 3 12 6 0 11 -6 11 -14 0 -17
36 -27 70 -20 16 4 21 3 12 -3 -24 -18 40 -59 104 -66 21 -3 47 -8 57 -12 20
-8 23 -25 5 -26 -12 -1 0 -7 50 -24 12 -4 22 -14 22 -21 0 -8 7 -14 15 -14 8
0 19 -17 26 -40 13 -42 16 -45 38 -31 8 5 10 14 6 22 -4 8 11 -4 34 -26 34
-33 39 -41 24 -46 -11 -4 -13 -8 -5 -13 6 -3 8 -14 5 -23 -4 -10 -2 -14 4 -10
6 4 14 1 17 -5 3 -7 4 -3 3 9 -1 12 1 22 6 23 22 1 26 -2 32 -20 3 -11 26 -44
50 -74 40 -49 42 -54 25 -59 -11 -3 -20 -10 -20 -17 0 -6 5 -8 11 -5 14 9 61
-36 55 -52 -3 -7 1 -13 8 -13 12 0 32 -44 28 -62 -1 -5 3 -8 8 -8 6 0 10 -13
10 -30 0 -16 4 -30 9 -30 15 0 21 -57 9 -90 l-11 -32 -24 27 c-14 14 -28 24
-31 21 -11 -12 61 -75 82 -73 15 1 21 -4 21 -18 1 -11 4 -35 9 -52 6 -25 4
-37 -8 -49 -12 -11 -13 -20 -6 -34 7 -13 7 -21 0 -25 -14 -9 -12 -27 3 -22 16
5 37 -63 24 -80 -5 -7 -7 -25 -4 -40 3 -15 0 -38 -6 -52 -17 -42 -18 -52 -18
-131 0 -89 -5 -110 -26 -110 -12 0 -14 -7 -9 -34 5 -24 2 -37 -9 -46 -8 -7
-15 -18 -15 -26 0 -7 -6 -17 -13 -21 -8 -4 -22 -27 -32 -50 -11 -24 -22 -43
-26 -43 -4 0 -9 -10 -11 -22 -2 -14 -15 -28 -33 -37 -34 -15 -95 -70 -95 -85
0 -5 -8 -18 -17 -29 -13 -15 -14 -18 -3 -12 8 5 21 17 28 27 7 10 18 18 25 18
6 0 -4 -16 -23 -35 -18 -19 -38 -31 -43 -28 -6 3 -7 1 -4 -4 10 -15 -17 -35
-37 -27 -9 3 -16 2 -16 -3 0 -6 -11 -15 -25 -21 -32 -15 -38 -15 -30 -2 3 6 2
10 -3 10 -5 0 -14 -11 -20 -25 -6 -14 -16 -25 -22 -25 -7 0 -18 -7 -26 -15
-12 -12 -12 -15 -2 -16 15 0 -114 -53 -155 -63 -22 -5 -27 -4 -22 6 4 7 1 6
-7 -3 -7 -9 -24 -19 -38 -24 -14 -4 -62 -25 -107 -46 -77 -37 -115 -50 -83
-29 13 9 12 12 -4 25 -23 18 -36 4 -29 -29 5 -21 5 -21 -10 -1 -13 17 -17 18
-32 5 -10 -8 -28 -16 -39 -17 -12 -1 -39 -4 -61 -8 -63 -10 -134 -12 -129 -3
3 4 -5 8 -18 8 -95 2 -188 15 -218 31 l-35 18 37 -2 c20 -1 34 -5 31 -9 -2 -5
13 -8 33 -8 21 0 35 2 33 4 -2 2 -49 20 -105 39 -70 25 -105 32 -117 26 -16
-10 -33 -3 -123 48 -22 12 -50 32 -64 45 -14 13 -21 20 -16 15 13 -9 36 -9 36
1 0 12 -72 47 -88 44 -10 -2 -13 2 -9 12 4 9 3 15 -1 14 -16 -3 -49 17 -77 48
-49 54 -65 74 -65 83 0 4 -9 20 -21 35 l-20 26 20 0 c15 0 19 4 14 17 -4 10
-2 14 5 9 6 -4 17 7 27 26 8 18 39 58 68 89 28 30 77 86 107 124 30 38 70 85
88 106 17 20 32 41 32 47 0 6 8 16 18 22 13 8 14 10 1 8 -8 -2 -52 -43 -98
-93 -45 -49 -98 -106 -117 -125 -19 -19 -34 -39 -34 -43 0 -5 -16 -27 -35 -50
-19 -22 -35 -45 -35 -49 0 -10 -64 -78 -74 -78 -3 0 -6 7 -6 16 0 9 -16 38
-36 65 -27 37 -32 49 -19 49 13 0 14 2 3 14 -8 8 -15 10 -19 4 -4 -6 -9 -6
-14 2 -4 6 -4 14 -1 17 3 3 1 12 -5 19 -6 8 -9 21 -5 29 3 8 2 15 -3 15 -13 0
-43 68 -41 93 4 40 0 55 -16 72 -12 11 -15 26 -11 51 4 23 2 34 -6 34 -8 0 -7
4 2 9 12 8 12 12 2 24 -18 23 -11 107 11 121 23 14 23 24 -3 45 -21 16 -21 21
-11 105 5 48 8 96 5 107 -3 10 -1 25 5 32 5 6 10 25 10 40 0 16 5 34 11 40 8
8 11 1 11 -27 0 -49 19 -43 35 12 12 38 11 41 -4 32 -14 -7 -18 -5 -19 8 -2
33 9 62 22 62 14 0 38 47 40 80 1 21 46 60 70 60 20 0 21 14 1 30 -22 18 -19
26 25 74 27 29 52 46 75 50 29 6 35 11 35 31 0 14 4 25 9 25 6 0 22 11 37 25
15 14 33 25 41 25 8 0 31 17 52 38 59 56 71 65 71 51 0 -7 17 4 37 24 20 21
42 37 50 37 7 0 13 4 13 9 0 5 9 11 20 14 11 3 20 1 20 -4 0 -12 35 -6 54 10
21 18 106 24 106 8 0 -8 3 -8 9 1 6 10 10 10 21 -3 10 -12 15 -13 21 -4 6 10
11 10 23 0 9 -8 16 -9 16 -4 0 5 9 10 20 11 64 7 81 10 88 12 4 1 11 2 16 1 5
-1 16 1 25 5 9 4 27 8 40 10 13 2 29 8 34 13 7 7 -2 8 -26 4 -23 -3 -37 -2
-37 5 0 6 15 13 33 15 17 2 38 5 45 5 6 1 12 -3 12 -8z m-450 -2154 c0 -11 -9
-13 -37 -9 -58 9 -64 23 -10 23 34 0 47 -4 47 -14z"/>
<path d="M1721 2653 c-13 -5 145 -62 174 -63 6 -1 45 -18 87 -38 58 -28 79
-34 83 -25 3 8 -6 18 -21 23 -14 6 -50 22 -80 36 -30 14 -64 24 -74 21 -11 -3
-18 -2 -17 2 1 3 -2 8 -8 9 -5 2 -16 8 -22 14 -7 6 -20 7 -30 4 -9 -4 -19 -3
-22 2 -8 12 -53 21 -70 15z"/>
<path d="M1270 2599 c0 -11 1 -11 58 -13 23 -2 39 1 35 5 -12 12 -93 19 -93 8z"/>
<path d="M1378 2603 c6 -2 10 -8 7 -12 -2 -4 13 -8 34 -9 22 -1 51 -6 66 -12
14 -6 50 -12 78 -15 32 -2 41 -1 23 3 -16 4 -31 13 -34 20 -3 11 0 12 17 3 17
-10 21 -9 21 3 0 10 -6 13 -15 10 -8 -4 -15 -2 -15 3 0 5 -26 10 -57 11 -40 1
-53 -2 -43 -8 11 -7 8 -10 -15 -10 -23 0 -27 3 -15 10 11 7 4 10 -25 9 -22 0
-34 -3 -27 -6z"/>
<path d="M1628 2553 c-5 -18 -1 -20 38 -18 24 1 41 -1 39 -5 -5 -9 57 -20 100
-19 l30 1 -35 12 c-19 6 -41 15 -49 20 -8 5 -16 4 -22 -5 -7 -11 -9 -11 -9 -1
0 7 10 17 23 22 16 6 17 9 5 9 -9 1 -20 -3 -23 -9 -3 -5 -19 -8 -36 -6 -16 2
-32 -1 -36 -7 -4 -6 -9 -3 -13 8 -6 18 -7 18 -12 -2z"/>
<path d="M1793 2553 c9 -2 17 -9 17 -14 0 -5 6 -9 14 -9 8 0 16 -5 18 -11 2
-5 22 -19 45 -29 36 -16 43 -17 54 -4 10 12 9 13 -3 9 -9 -4 -23 1 -32 10 -9
9 -21 13 -27 9 -6 -3 -14 -3 -18 2 -10 16 -60 44 -73 43 -7 -1 -5 -3 5 -6z"/>
<path d="M1990 2456 c14 -7 39 -16 55 -20 l30 -7 -33 21 c-18 11 -42 20 -55
20 -21 -1 -21 -1 3 -14z"/>
<path d="M1622 2403 c-1 -16 -7 -29 -12 -31 -6 -2 -10 -8 -10 -13 0 -6 6 -7
13 -3 8 6 8 3 -1 -9 -9 -10 -11 -24 -6 -39 7 -21 8 -20 16 12 15 67 20 110 11
110 -5 0 -10 -12 -11 -27z"/>
<path d="M1960 2419 c0 -5 -3 -8 -7 -6 -5 3 -9 -20 -9 -51 -1 -32 1 -48 3 -37
3 11 10 26 15 32 6 7 7 20 4 29 -4 9 -1 23 5 30 8 10 8 14 0 14 -6 0 -11 -5
-11 -11z"/>
<path d="M1344 2411 c3 -4 7 -29 11 -57 7 -65 23 -122 35 -129 6 -3 10 -1 10
5 0 6 4 9 9 6 8 -5 30 15 46 42 6 11 3 11 -14 0 -12 -7 -21 -16 -21 -20 0 -5
-5 -8 -11 -8 -5 0 -7 5 -4 10 3 6 -1 10 -9 10 -9 0 -16 8 -17 18 0 9 -1 36 -2
60 -2 23 1 42 6 42 15 0 -2 18 -23 23 -11 3 -18 2 -16 -2z"/>
<path d="M730 2375 c-11 -13 -8 -15 18 -15 17 0 34 -4 37 -10 4 -6 -1 -7 -11
-3 -11 4 -15 3 -10 -5 11 -19 43 -10 41 12 -2 32 -54 46 -75 21z"/>
<path d="M925 2377 c-4 -9 -1 -32 6 -50 8 -17 13 -35 11 -39 -1 -5 3 -8 8 -8
6 0 9 -5 8 -11 -2 -6 2 -13 9 -16 13 -5 1 57 -21 110 -11 27 -15 29 -21 14z"/>
<path d="M680 2311 c0 -16 24 -18 50 -4 25 13 25 13 -12 13 -21 0 -38 -4 -38
-9z"/>
<path d="M815 2310 c-3 -5 2 -10 13 -10 11 0 36 -14 57 -30 21 -17 40 -28 42
-26 8 7 -27 54 -45 61 -33 13 -61 15 -67 5z"/>
<path d="M1692 2305 c-7 -8 -12 -18 -11 -22 1 -5 -11 -14 -27 -22 -15 -8 -37
-22 -48 -33 -23 -21 -32 -23 -40 -5 -4 6 -4 1 -1 -13 2 -14 5 -35 5 -48 0 -23
0 -23 25 -5 22 17 37 52 16 38 -5 -3 -12 -1 -16 5 -6 10 9 19 39 24 9 1 34 19
55 39 40 38 64 46 77 25 5 -8 2 -9 -11 -4 -15 5 -16 4 -5 -9 12 -15 14 -15 23
0 11 21 1 31 -38 39 -20 4 -34 1 -43 -9z"/>
<path d="M2115 2311 c-3 -5 -1 -12 4 -15 12 -8 41 3 41 15 0 12 -37 12 -45 0z"/>
<path d="M1980 2263 c0 -15 -2 -16 -10 -3 -5 8 -10 11 -11 5 -3 -33 -10 -51
-23 -61 -9 -6 -13 -13 -10 -16 3 -3 16 5 29 18 13 13 32 24 41 24 13 0 14 3 4
15 -6 8 -9 19 -5 25 3 5 1 10 -4 10 -6 0 -11 -8 -11 -17z"/>
<path d="M2361 2240 c9 -13 22 -26 30 -29 11 -3 10 1 -2 19 -9 13 -22 26 -30
29 -11 3 -10 -1 2 -19z"/>
<path d="M1892 2197 c-7 -16 -12 -35 -12 -43 0 -18 24 -18 40 1 8 9 8 15 2 15
-6 0 -12 12 -14 28 l-4 27 -12 -28z"/>
<path d="M1380 2177 c0 -19 4 -27 13 -24 6 2 11 10 10 16 -2 6 2 11 7 11 6 0
10 6 10 13 0 7 -9 13 -20 13 -15 0 -20 -7 -20 -29z"/>
<path d="M600 2190 c-8 -6 -11 -10 -6 -10 4 0 1 -12 -8 -26 -10 -14 -15 -31
-13 -37 2 -7 14 8 26 31 24 47 24 56 1 42z"/>
<path d="M1015 2180 c-4 -6 1 -10 10 -10 9 0 13 -4 10 -10 -3 -6 1 -7 9 -4 11
4 16 0 16 -10 0 -9 6 -16 14 -16 8 0 17 -7 20 -16 3 -9 12 -14 19 -11 6 2 21
-6 33 -18 33 -35 105 -78 115 -68 5 5 -1 15 -13 23 -12 8 -40 32 -63 52 -23
21 -45 35 -49 31 -4 -4 -4 0 0 10 5 13 2 16 -10 11 -9 -4 -24 1 -34 9 -25 23
-70 38 -77 27z"/>
<path d="M2331 2113 c-12 -14 -19 -28 -17 -31 9 -8 37 8 31 17 -3 5 5 17 17
25 17 13 19 16 6 16 -9 0 -26 -12 -37 -27z"/>
<path d="M1008 2083 c2 -16 9 -34 14 -40 6 -7 8 -19 5 -28 -4 -8 -2 -17 3 -20
6 -4 10 -15 10 -26 0 -10 5 -19 11 -19 6 0 9 6 6 14 -3 8 -9 32 -13 53 -6 35
-30 93 -38 93 -2 0 -1 -12 2 -27z"/>
<path d="M1856 2097 c-16 -49 -16 -47 4 -34 23 13 23 16 10 37 -8 12 -10 12
-14 -3z"/>
<path d="M631 2067 c-1 -27 -2 -27 -26 -11 -29 19 -55 9 -28 -12 10 -7 28 -14
40 -14 14 0 28 -10 36 -26 13 -26 14 -26 20 -5 3 11 2 19 -3 16 -4 -3 -11 5
-15 18 -21 61 -23 64 -24 34z"/>
<path d="M960 2060 c-11 -7 -9 -14 8 -42 12 -18 22 -28 22 -23 0 6 -4 17 -10
25 -5 9 -5 19 1 26 13 15 -2 25 -21 14z"/>
<path d="M2288 2057 c-16 -6 -28 -14 -28 -19 0 -14 -78 -84 -112 -101 -18 -9
-27 -17 -19 -17 7 0 -14 -30 -48 -66 -34 -36 -58 -70 -55 -76 4 -6 3 -8 -4 -4
-10 6 -46 -33 -37 -42 8 -8 65 39 65 54 0 8 3 14 8 14 14 0 59 45 66 68 4 12
13 22 20 22 7 0 41 30 76 68 74 79 103 112 99 111 -2 -1 -16 -6 -31 -12z"/>
<path d="M2475 2043 c7 -30 13 -39 19 -32 8 8 -6 59 -16 59 -6 0 -7 -11 -3
-27z"/>
<path d="M836 1974 c-5 -14 -18 -16 -74 -12 -58 4 -68 3 -68 -11 0 -14 8 -15
61 -8 70 11 105 23 105 37 0 16 -17 12 -24 -6z"/>
<path d="M886 1975 c4 -8 17 -15 31 -15 22 0 24 2 13 15 -7 8 -21 15 -31 15
-12 0 -16 -5 -13 -15z"/>
<path d="M2266 1946 c4 -9 -3 -16 -18 -19 l-23 -4 23 -2 c13 0 30 6 38 14 20
20 32 19 37 -2 4 -14 5 -12 6 5 1 19 -4 22 -34 22 -26 0 -33 -4 -29 -14z"/>
<path d="M2037 1919 c-10 -6 -25 -8 -33 -5 -8 3 -14 1 -14 -4 0 -6 -12 -10
-26 -10 -14 0 -23 -4 -19 -10 3 -6 16 -8 28 -5 12 2 48 9 80 15 31 6 57 16 57
21 0 12 -51 11 -73 -2z"/>
<path d="M1190 1890 c0 -5 -6 -10 -13 -10 -7 0 -21 -13 -30 -30 -10 -16 -16
-30 -14 -30 11 0 46 38 40 44 -3 3 -2 6 3 6 6 0 19 7 30 15 17 13 17 14 2 15
-10 0 -18 -4 -18 -10z"/>
<path d="M2367 1832 c3 -9 13 -25 21 -34 12 -14 12 -21 3 -32 -10 -12 -9 -13
9 -9 19 5 20 7 5 29 -8 13 -15 30 -15 38 0 7 -7 16 -14 19 -11 4 -13 1 -9 -11z"/>
<path d="M1399 1811 c-117 -23 -201 -128 -201 -251 -1 -156 143 -276 304 -251
30 5 51 4 59 -3 8 -8 10 -7 7 3 -3 9 13 27 41 45 25 17 52 43 59 59 7 15 19
27 26 27 8 0 12 10 11 25 -2 14 1 25 6 25 4 0 6 18 3 39 -3 22 -1 48 5 59 6
12 7 22 2 24 -5 2 -11 10 -13 18 -2 8 -13 29 -25 47 -13 17 -23 35 -23 40 0
16 -105 77 -155 90 -53 14 -53 14 -106 4z m158 -51 c47 -14 81 -48 112 -109
25 -48 27 -99 6 -169 -20 -67 -53 -104 -117 -132 -114 -49 -253 6 -315 125
-24 46 -22 160 5 211 22 43 61 75 102 85 40 9 162 2 207 -11z"/>
<path d="M691 1798 c9 -7 14 -17 12 -23 -6 -19 102 -120 129 -120 3 0 10 -3
14 -7 4 -5 23 -8 43 -8 45 0 30 13 -34 30 -60 16 -82 30 -106 67 -22 33 -24
47 -6 37 8 -4 9 -4 2 3 -5 5 -23 15 -40 21 -24 10 -27 10 -14 0z"/>
<path d="M1087 1757 c-9 -11 -17 -29 -17 -39 0 -10 -6 -21 -13 -24 -8 -3 -13
-21 -13 -45 0 -35 2 -39 12 -25 6 9 14 35 18 57 4 22 14 51 23 65 20 31 13 40
-10 11z"/>
<path d="M2210 1750 c0 -11 5 -20 10 -20 6 0 10 -4 10 -10 0 -5 -12 -10 -27
-10 -14 0 -23 -3 -19 -7 10 -10 46 -11 46 -1 0 5 5 6 11 3 6 -4 8 -9 5 -12 -3
-3 2 -13 11 -22 12 -11 17 -13 21 -3 2 6 13 12 23 12 11 0 18 4 15 9 -3 5 -15
7 -25 4 -15 -4 -26 5 -45 36 -29 46 -36 50 -36 21z"/>
<path d="M596 1712 c-22 -13 -30 -14 -33 -4 -4 10 -8 10 -19 1 -10 -9 -17 -9
-28 0 -19 16 -46 3 -46 -23 1 -20 2 -20 14 -3 15 19 42 24 30 5 -5 -8 3 -9 30
-5 44 7 96 29 96 39 0 11 -11 9 -44 -10z"/>
<path d="M627 1679 c12 -12 142 -33 150 -25 4 3 -3 6 -15 6 -12 0 -22 5 -22
10 0 6 -12 10 -27 9 -16 0 -43 2 -62 5 -22 3 -31 2 -24 -5z"/>
<path d="M2036 1645 c-11 -9 -15 -19 -10 -27 6 -10 4 -10 -7 -2 -18 14 -66 17
-52 3 13 -13 81 -15 94 -2 7 7 8 17 3 26 -8 13 -12 13 -28 2z"/>
<path d="M1826 1632 c-7 -11 4 -52 14 -52 4 0 10 7 14 15 3 8 1 15 -5 15 -6 0
-9 7 -5 15 6 16 -9 21 -18 7z"/>
<path d="M2315 1601 c-6 -5 -40 -18 -77 -31 -67 -21 -111 -51 -52 -35 16 5 39
9 52 9 12 1 22 4 22 8 0 6 39 23 50 21 3 0 14 8 24 18 15 15 16 19 5 19 -8 0
-19 -4 -24 -9z"/>
<path d="M1020 1560 c0 -5 6 -10 13 -10 8 0 7 -4 -3 -10 -11 -7 -11 -10 -2
-10 7 0 11 -3 9 -7 -3 -5 1 -14 9 -20 9 -9 15 -10 20 -2 3 6 3 14 -2 18 -5 3
-9 12 -10 19 -2 28 -5 32 -19 32 -8 0 -15 -4 -15 -10z"/>
<path d="M2478 1558 c-5 -43 -4 -68 2 -61 14 15 22 73 11 73 -6 0 -12 -6 -13
-12z"/>
<path d="M2024 1542 c-7 -4 -8 -15 -3 -27 6 -17 8 -17 8 -2 1 21 34 23 51 2 7
-9 15 -13 18 -10 3 3 -3 14 -13 25 -19 21 -42 25 -61 12z"/>
<path d="M841 1509 c-13 -5 -22 -11 -19 -14 8 -8 78 7 72 16 -6 11 -22 11 -53
-2z"/>
<path d="M2365 1504 c-17 -12 -21 -44 -5 -44 6 0 10 9 10 21 0 18 5 20 40 18
52 -4 63 8 11 13 -22 2 -47 -2 -56 -8z"/>
<path d="M433 1490 c-13 -5 -23 -14 -23 -20 0 -6 11 -3 26 6 24 16 26 16 40
-5 8 -11 22 -21 30 -21 8 0 28 -13 46 -30 35 -34 61 -41 32 -9 -16 18 -120 90
-127 88 -1 0 -12 -4 -24 -9z"/>
<path d="M758 1493 c-10 -2 -18 -8 -18 -13 0 -4 -11 -11 -25 -14 -14 -4 -25
-11 -25 -16 0 -16 18 -11 60 16 51 34 52 39 8 27z"/>
<path d="M567 1473 c-3 -4 14 -9 38 -11 24 -1 46 1 48 5 3 4 -14 9 -38 11 -24
1 -46 -1 -48 -5z"/>
<path d="M1053 1460 c1 -11 4 -20 8 -20 4 0 10 -11 13 -25 6 -23 8 -24 21 -11
19 19 19 26 0 26 -8 0 -17 11 -21 25 -7 30 -23 34 -21 5z"/>
<path d="M646 1425 c-10 -8 -24 -16 -30 -18 -6 -2 -8 -7 -4 -11 9 -11 70 23
63 34 -8 12 -6 12 -29 -5z"/>
<path d="M2432 1360 c-11 -22 -15 -40 -10 -40 6 0 5 -7 -2 -15 -10 -12 -9 -15
5 -15 12 0 16 6 12 20 -3 11 -2 20 2 20 11 0 30 59 21 65 -4 3 -17 -13 -28
-35z"/>
<path d="M1106 1345 c16 -25 34 -33 34 -17 0 10 -33 42 -44 42 -3 0 1 -11 10
-25z"/>
<path d="M1976 1361 c11 -11 30 -14 64 -11 24 2 24 3 -5 10 -44 11 -71 12 -59
1z"/>
<path d="M2195 1310 c2 -4 26 -7 52 -8 34 -1 44 1 33 8 -17 11 -92 11 -85 0z"/>
<path d="M2338 1298 c-21 -6 -38 -16 -38 -23 0 -10 9 -10 43 2 77 26 74 42 -5
21z"/>
<path d="M447 1280 c3 -11 11 -19 17 -18 7 2 27 -13 45 -32 19 -19 28 -26 20
-15 -19 29 -72 85 -80 85 -4 0 -5 -9 -2 -20z"/>
<path d="M1021 1274 c-25 -6 -46 -15 -48 -21 -3 -8 7 -8 34 -2 21 5 50 12 66
15 30 7 38 24 10 21 -10 -1 -38 -7 -62 -13z"/>
<path d="M1170 1268 c0 -20 18 -43 26 -35 4 4 14 1 22 -6 13 -10 14 -9 7 3
-23 42 -55 64 -55 38z"/>
<path d="M2233 1267 c-23 -5 -44 -15 -47 -22 -4 -10 2 -10 22 1 15 8 37 14 49
14 12 0 25 5 28 10 7 11 5 11 -52 -3z"/>
<path d="M2117 1263 c-3 -5 5 -20 18 -35 13 -16 27 -23 30 -18 3 6 -1 13 -9
16 -9 3 -16 12 -16 19 0 16 -17 29 -23 18z"/>
<path d="M1796 1215 c2 -21 8 -43 14 -49 5 -5 10 -22 10 -37 0 -15 5 -31 11
-35 6 -3 9 -19 7 -35 -3 -21 -1 -26 7 -19 9 8 11 4 7 -15 -3 -18 2 -32 17 -46
20 -19 20 -46 0 -34 -5 4 -9 -1 -9 -9 0 -9 4 -16 10 -16 11 0 1 -32 -14 -42
-6 -4 -1 -8 13 -8 17 0 22 -4 17 -16 -6 -17 9 -44 25 -44 12 0 3 104 -9 108
-6 2 -8 10 -5 18 5 13 -28 127 -48 167 -6 10 -7 22 -4 27 3 5 1 11 -5 15 -6 4
-8 10 -5 15 3 5 1 11 -5 15 -5 3 -10 14 -10 24 0 9 -6 25 -13 35 -12 16 -13
14 -11 -19z"/>
<path d="M2383 1192 c-12 -31 -28 -76 -35 -99 -9 -29 -18 -43 -30 -43 -22 0
-24 -16 -3 -24 17 -6 38 22 56 72 6 18 15 32 21 32 5 0 7 4 4 8 -3 5 -1 26 5
46 17 63 5 68 -18 8z"/>
<path d="M919 1233 c-1 -5 -1 -11 -1 -14 1 -3 -27 -9 -61 -13 -70 -7 -117 -36
-57 -35 51 1 147 34 130 44 -11 7 -10 10 6 16 17 7 17 8 2 8 -10 1 -19 -2 -19
-6z"/>
<path d="M1053 1231 c-62 -10 -62 -19 -2 -17 32 0 54 6 57 14 2 6 0 11 -5 11
-4 -1 -27 -5 -50 -8z"/>
<path d="M1677 1233 c-14 -13 -6 -23 19 -23 22 0 25 2 14 15 -14 16 -23 19
-33 8z"/>
<path d="M558 1174 c-13 -12 27 -40 51 -35 29 5 81 30 66 32 -22 3 -61 -4 -77
-12 -14 -7 -18 -6 -18 6 0 15 -12 20 -22 9z"/>
<path d="M2442 1093 c-24 -50 -24 -68 1 -29 15 23 33 76 26 76 -2 0 -14 -21
-27 -47z"/>
<path d="M1940 1110 c0 -11 2 -20 4 -20 2 0 11 -3 20 -6 9 -3 16 -1 16 6 0 6
-4 9 -9 5 -5 -3 -12 -1 -16 5 -3 5 -1 10 4 10 6 0 11 5 11 10 0 6 -7 10 -15
10 -8 0 -15 -9 -15 -20z"/>
<path d="M941 1047 c-7 -34 -16 -66 -21 -72 -4 -5 -15 -36 -24 -67 -9 -32 -21
-58 -26 -58 -6 0 -10 -17 -10 -38 0 -21 -6 -44 -12 -51 -11 -11 -10 -13 0 -10
11 4 72 156 74 187 1 6 8 12 17 12 11 0 12 3 4 11 -8 8 -5 28 8 72 10 34 15
65 11 69 -5 5 -14 -20 -21 -55z"/>
<path d="M2090 1084 c0 -9 3 -15 6 -11 4 3 13 -1 21 -9 9 -8 22 -13 29 -10 7
3 17 -2 22 -11 6 -9 14 -13 22 -8 9 6 9 9 -1 16 -10 6 -7 9 10 9 33 0 20 11
-26 20 -21 5 -48 12 -60 15 -18 6 -23 3 -23 -11z"/>
<path d="M2010 1062 c0 -11 -7 -22 -15 -26 -16 -6 -21 -26 -7 -26 14 0 53 41
49 53 -6 20 -27 19 -27 -1z"/>
<path d="M875 1041 c-3 -6 -13 -11 -22 -11 -26 0 -87 -33 -122 -67 -32 -31
-25 -48 8 -19 9 7 44 28 79 46 61 31 79 46 69 56 -3 3 -8 1 -12 -5z"/>
<path d="M1200 1009 c0 -35 -3 -40 -19 -34 -13 4 -26 -4 -44 -29 -33 -42 -44
-53 -90 -90 -38 -30 -41 -44 -9 -41 15 1 65 40 61 48 -6 9 15 47 27 47 8 0 14
7 14 15 0 13 39 38 48 30 1 -1 -2 -15 -9 -31 -6 -16 -12 -42 -14 -59 -2 -16
-10 -61 -19 -100 -19 -81 -19 -85 -7 -85 8 0 28 87 53 230 5 30 13 57 18 58
13 5 13 82 0 82 -5 0 -10 -18 -10 -41z"/>
<path d="M2061 1034 c-1 -15 21 -40 42 -47 9 -4 17 -2 17 3 0 6 -6 10 -14 10
-7 0 -21 10 -29 23 -9 12 -16 17 -16 11z"/>
<path d="M2205 1000 c7 -11 -4 -13 -47 -10 -16 1 -28 -3 -28 -9 0 -6 7 -11 16
-11 8 0 12 -4 9 -10 -3 -5 -1 -10 4 -10 6 0 11 4 11 10 0 5 11 12 25 16 24 6
36 34 14 34 -5 0 -7 -4 -4 -10z"/>
<path d="M1443 894 c0 -15 3 -21 7 -15 4 7 11 11 16 9 5 -2 10 2 12 7 1 6 -1
10 -5 10 -5 0 -13 4 -19 7 -8 5 -11 -1 -11 -18z"/>
<path d="M1700 874 c0 -12 24 -37 85 -87 43 -36 75 -52 75 -37 0 5 -9 12 -20
15 -20 6 -20 7 2 25 20 17 20 19 6 20 -10 0 -18 -4 -18 -10 0 -5 -9 -10 -19
-10 -21 0 -36 26 -21 35 15 10 12 19 -12 34 -23 14 -23 14 -4 -7 16 -19 17
-22 3 -28 -10 -4 -27 6 -46 28 -17 18 -31 28 -31 22z"/>
<path d="M1065 770 c3 -19 10 -39 16 -45 7 -7 8 -1 3 20 -11 46 -26 67 -19 25z"/>
<path d="M1487 755 c-9 -22 -9 -27 1 -21 5 3 22 -22 37 -54 16 -33 30 -58 33
-56 2 2 -4 19 -13 37 -14 26 -15 33 -4 40 35 21 41 28 37 39 -3 9 -8 8 -20 -4
-23 -22 -35 -20 -51 10 -12 23 -15 24 -20 9z"/>
<path d="M925 718 c11 -6 25 -18 31 -26 9 -13 12 -13 17 1 7 19 -3 27 -41 33
-25 4 -25 3 -7 -8z"/>
<path d="M1003 693 c-17 -6 -16 -20 2 -27 8 -3 14 -1 12 3 -1 5 1 9 6 10 4 1
7 -2 6 -5 -1 -10 24 -23 33 -18 13 9 9 21 -9 28 -10 3 -22 8 -28 10 -5 2 -16
2 -22 -1z"/>
<path d="M1818 655 c-9 -19 -16 -24 -32 -19 -12 3 -23 6 -26 6 -23 0 -30 -5
-30 -22 0 -11 -7 -20 -15 -20 -8 0 -19 -9 -25 -20 -8 -14 -8 -20 0 -20 20 0
60 32 53 43 -3 6 -1 7 5 3 15 -9 93 34 85 47 -3 6 -1 7 6 3 11 -7 86 12 78 20
-2 3 -15 0 -29 -5 -15 -5 -30 -5 -41 0 -13 8 -19 5 -29 -16z"/>
<path d="M1088 663 c6 -2 12 -11 12 -18 0 -7 10 -12 25 -11 14 0 25 4 25 8 0
11 -36 28 -57 27 -10 0 -13 -3 -5 -6z"/>
<path d="M1465 647 c-21 -12 -33 -47 -17 -47 10 0 46 49 40 55 -2 2 -12 -2
-23 -8z"/>
<path d="M1160 630 c0 -9 29 -15 53 -11 4 0 7 -6 7 -14 0 -8 6 -15 14 -15 8 0
23 -3 33 -6 15 -5 15 -4 3 5 -24 17 9 14 40 -4 28 -16 110 -20 110 -6 0 13
-28 22 -35 11 -4 -6 -11 -10 -16 -10 -6 0 -8 4 -4 9 3 6 -16 12 -42 16 -27 3
-71 12 -99 20 -60 18 -64 18 -64 5z"/>
<path d="M1434 569 c-6 -11 -9 -10 49 -13 26 -2 47 1 47 5 0 5 -10 10 -22 10
-13 1 -33 3 -46 4 -12 1 -25 -2 -28 -6z"/>
</g>
</svg>
